<svg width="15" height="14" viewBox="0 0 15 14" fill="none" xmlns="http://www.w3.org/2000/svg">
<path d="M14.1242 13.0897L10.0573 9.02281C10.8287 8.0705 11.293 6.85983 11.293 5.54169C11.293 2.48602 8.80699 0 5.75132 0C2.69565 0 0.209656 2.48602 0.209656 5.54169C0.209656 8.59736 2.69567 11.0834 5.75135 11.0834C7.06948 11.0834 8.28016 10.619 9.23246 9.84769L13.2994 13.9146C13.4133 14.0285 13.5979 14.0285 13.7119 13.9146L14.1242 13.5022C14.2381 13.3883 14.2381 13.2036 14.1242 13.0897ZM5.75135 9.9167C3.33883 9.9167 1.37633 7.95421 1.37633 5.54169C1.37633 3.12917 3.33883 1.16668 5.75135 1.16668C8.16386 1.16668 10.1264 3.12917 10.1264 5.54169C10.1264 7.95421 8.16386 9.9167 5.75135 9.9167Z" fill="#6B7FA0"/>
</svg>
