<svg width="65" height="65" viewBox="0 0 65 65" fill="none" xmlns="http://www.w3.org/2000/svg">
<path d="M32.218 0.213257C14.543 0.213257 0.218018 14.5383 0.218018 32.2133C0.218018 49.8883 14.543 64.2133 32.218 64.2133C49.893 64.2133 64.218 49.8883 64.218 32.2133C64.218 14.5383 49.893 0.213257 32.218 0.213257ZM32.218 16.2133C37.1893 16.2133 41.218 20.2433 41.218 25.2133C41.218 30.1833 37.193 34.2133 32.218 34.2133C27.248 34.2133 23.218 30.1833 23.218 25.2133C23.218 20.2433 27.243 16.2133 32.218 16.2133ZM32.218 56.2133C25.6018 56.2133 19.6055 53.522 15.2555 49.177C17.2805 43.9508 22.2805 40.2133 28.218 40.2133H36.218C42.1605 40.2133 47.1605 43.9483 49.1805 49.177C44.8305 53.5258 38.8305 56.2133 32.218 56.2133Z" fill="#BDBDBD"/>
</svg>
